<svg id="Capa_1" enable-background="new 0 0 512 512" height="512" viewBox="0 0 512 512" width="512" xmlns="http://www.w3.org/2000/svg"><g><g><path d="m20.804 449.468-10.712 20.958c-4.619 9.038-2.887 20.024 4.291 27.201 7.177 7.177 18.163 8.91 27.201 4.291l20.958-10.712z" fill="#26457d"/></g><g><path d="m334.927 90.814h136.214v36.324h-136.214z" fill="#e4fbef" transform="matrix(.707 .707 -.707 .707 195.103 -253.07)"/></g><g><path d="m429.878 130.144h24.973v36.324h-24.973z" fill="#d3effb" transform="matrix(.707 .707 -.707 .707 234.433 -269.361)"/></g><g><path d="m94.837 417.173-48.159-48.159-25.874 80.454 20.869 20.869 20.869 20.869 80.454-25.874z" fill="#f1d59d"/></g><g><path d="m464.035 144.292-96.318-96.318 30.501-30.501c13.299-13.299 34.86-13.299 48.159 0l48.159 48.159c13.299 13.299 13.299 34.86 0 48.159z" fill="#df75a5"/></g><g><path d="m494.536 65.633-17.658-17.658c13.299 13.299 13.299 34.86 0 48.159l-30.501 30.501 17.658 17.658 30.501-30.501c13.299-13.299 13.299-34.861 0-48.159z" fill="#dd5790"/></g><g><path d="m342.033 73.659-295.355 295.355-4.331 25.986c-1.024 6.146 4.304 11.475 10.45 10.45l13.446-2.241c3.073-.512 5.942.564 7.914 2.536l299.981-299.981z" fill="#ffe07d"/></g><g><path d="m406.245 137.871-299.981 299.981c1.972 1.972 3.048 4.841 2.536 7.914l-2.241 13.446c-1.024 6.146 4.304 11.475 10.45 10.45l25.987-4.331 295.355-295.355z" fill="#ffc250"/></g><g><path d="m374.139 105.765-299.981 299.981c1.972 1.972 3.048 4.841 2.536 7.914l-2.241 13.446c-1.024 6.146 4.304 11.475 10.45 10.45l13.446-2.241c3.073-.512 5.942.564 7.914 2.536l299.981-299.981z" fill="#ffd064"/></g><path d="m499.839 60.329-48.159-48.158c-7.848-7.848-18.283-12.171-29.382-12.171s-21.534 4.323-29.383 12.171l-209.757 209.758c-2.929 2.929-2.929 7.677 0 10.606s7.677 2.929 10.606 0l148.272-148.271 21.499 21.499-290.65 290.65c-2.506-.82-5.205-1.048-7.872-.604l-13.459 2.241c-.652.112-1.103-.177-1.365-.438-.264-.264-.556-.719-.446-1.383l3.935-23.608 115.336-115.336c2.929-2.929 2.929-7.677 0-10.606s-7.677-2.929-10.606 0l-117.035 117.035c-.845.845-1.467 1.876-1.83 3.003-.001 0-.002 0-.004 0l-25.688 79.876-10.437 20.42c-6.12 11.974-3.843 26.408 5.665 35.917 5.952 5.952 13.831 9.07 21.831 9.07 4.781 0 9.607-1.115 14.086-3.404l20.419-10.437 79.876-25.688c0-.001 0-.003.001-.004 1.127-.363 2.158-.986 3.003-1.83l182.314-182.314c2.929-2.929 2.929-7.677 0-10.606s-7.677-2.929-10.606 0l-180.614 180.614-23.602 3.934c-.668.112-1.124-.181-1.389-.446-.26-.261-.548-.709-.437-1.373l2.24-13.452c.443-2.666.215-5.366-.604-7.871l290.649-290.649 21.499 21.499-83.014 83.014c-2.929 2.929-2.929 7.677 0 10.606 1.464 1.464 3.384 2.197 5.303 2.197s3.839-.732 5.303-2.197l144.5-144.499c16.204-16.201 16.204-42.563.002-58.765zm-445.811 352.515 13.448-2.239c.66-.106 1.114.182 1.39.458.258.256.541.701.432 1.362l-2.239 13.442c-.883 5.274.846 10.679 4.626 14.459s9.184 5.509 14.452 4.627l13.448-2.239c.662-.111 1.107.174 1.377.445.263.263.554.716.445 1.374l-2.238 13.44c-.748 4.46.382 9.013 3.037 12.599l-37.598 12.092-35.26-35.26 12.092-37.598c3.584 2.656 8.136 3.789 12.588 3.038zm-15.857 82.396c-6.163 3.148-13.591 1.978-18.485-2.916-4.894-4.893-6.066-12.321-2.916-18.484l6.02-11.779 27.159 27.159zm66.821-66.722c-2.503-.817-5.201-1.043-7.87-.6l-13.457 2.241c-.66.111-1.113-.177-1.375-.438-.261-.262-.549-.712-.437-1.382l2.24-13.452c.443-2.668.217-5.367-.599-7.869l290.648-290.648 21.5 21.5zm247.649-354.861 15.076-15.076 85.712 85.712-15.076 15.076zm136.592 34.831-25.197 25.198-85.712-85.712 25.198-25.197c10.353-10.354 27.2-10.353 37.553 0l48.159 48.159c10.352 10.353 10.352 27.199-.001 37.552z"/></g></svg>